<mxfile host="app.diagrams.net" modified="2023-12-06T14:04:16.863Z" agent="Mozilla/5.0 (Macintosh; Intel Mac OS X 10_15_7) AppleWebKit/537.36 (KHTML, like Gecko) Chrome/119.0.0.0 Safari/537.36" etag="LWjlkcIogqFEalWtUp9y" version="22.1.5" type="device">
  <diagram id="R2lEEEUBdFMjLlhIrx00" name="Page-1">
    <mxGraphModel dx="1259" dy="707" grid="1" gridSize="10" guides="1" tooltips="1" connect="1" arrows="1" fold="1" page="1" pageScale="1" pageWidth="850" pageHeight="1100" math="0" shadow="0" extFonts="Permanent Marker^https://fonts.googleapis.com/css?family=Permanent+Marker">
      <root>
        <mxCell id="0" />
        <mxCell id="1" parent="0" />
        <mxCell id="tWp8pD5Znb900uZFBF2w-28" value="" style="rounded=1;whiteSpace=wrap;html=1;strokeColor=#1290FF;" parent="1" vertex="1">
          <mxGeometry x="150" y="380" width="550" height="280" as="geometry" />
        </mxCell>
        <mxCell id="tWp8pD5Znb900uZFBF2w-1" value="VolumeTargets" style="shape=table;startSize=30;container=1;collapsible=1;childLayout=tableLayout;fixedRows=1;rowLines=0;fontStyle=1;align=center;resizeLast=1;html=1;fillColor=#dae8fc;strokeColor=#6c8ebf;swimlaneLine=1;" parent="1" vertex="1">
          <mxGeometry x="180" y="455" width="190" height="125" as="geometry" />
        </mxCell>
        <mxCell id="tWp8pD5Znb900uZFBF2w-2" value="" style="shape=tableRow;horizontal=0;startSize=0;swimlaneHead=0;swimlaneBody=0;fillColor=none;collapsible=0;dropTarget=0;points=[[0,0.5],[1,0.5]];portConstraint=eastwest;top=0;left=0;right=0;bottom=1;strokeColor=inherit;" parent="tWp8pD5Znb900uZFBF2w-1" vertex="1">
          <mxGeometry y="30" width="190" height="35" as="geometry" />
        </mxCell>
        <mxCell id="tWp8pD5Znb900uZFBF2w-3" value="Partition key" style="shape=partialRectangle;connectable=0;fillColor=none;top=0;left=0;bottom=0;right=0;fontStyle=1;overflow=hidden;whiteSpace=wrap;html=1;" parent="tWp8pD5Znb900uZFBF2w-2" vertex="1">
          <mxGeometry width="80" height="35" as="geometry">
            <mxRectangle width="80" height="35" as="alternateBounds" />
          </mxGeometry>
        </mxCell>
        <mxCell id="tWp8pD5Znb900uZFBF2w-4" value="&lt;font face=&quot;Helvetica&quot;&gt;Agent (String)&lt;/font&gt;" style="shape=partialRectangle;connectable=0;fillColor=none;top=0;left=0;bottom=0;right=0;align=left;spacingLeft=6;fontStyle=1;overflow=hidden;whiteSpace=wrap;html=1;" parent="tWp8pD5Znb900uZFBF2w-2" vertex="1">
          <mxGeometry x="80" width="110" height="35" as="geometry">
            <mxRectangle width="110" height="35" as="alternateBounds" />
          </mxGeometry>
        </mxCell>
        <mxCell id="tWp8pD5Znb900uZFBF2w-5" value="" style="shape=tableRow;horizontal=0;startSize=0;swimlaneHead=0;swimlaneBody=0;fillColor=none;collapsible=0;dropTarget=0;points=[[0,0.5],[1,0.5]];portConstraint=eastwest;top=0;left=0;right=0;bottom=0;" parent="tWp8pD5Znb900uZFBF2w-1" vertex="1">
          <mxGeometry y="65" width="190" height="30" as="geometry" />
        </mxCell>
        <mxCell id="tWp8pD5Znb900uZFBF2w-6" value="Sort key" style="shape=partialRectangle;connectable=0;fillColor=none;top=0;left=0;bottom=0;right=0;editable=1;overflow=hidden;whiteSpace=wrap;html=1;fontStyle=1" parent="tWp8pD5Znb900uZFBF2w-5" vertex="1">
          <mxGeometry width="80" height="30" as="geometry">
            <mxRectangle width="80" height="30" as="alternateBounds" />
          </mxGeometry>
        </mxCell>
        <mxCell id="tWp8pD5Znb900uZFBF2w-7" value="Month (String)" style="shape=partialRectangle;connectable=0;fillColor=none;top=0;left=0;bottom=0;right=0;align=left;spacingLeft=6;overflow=hidden;whiteSpace=wrap;html=1;fontStyle=1" parent="tWp8pD5Znb900uZFBF2w-5" vertex="1">
          <mxGeometry x="80" width="110" height="30" as="geometry">
            <mxRectangle width="110" height="30" as="alternateBounds" />
          </mxGeometry>
        </mxCell>
        <mxCell id="tWp8pD5Znb900uZFBF2w-8" value="" style="shape=tableRow;horizontal=0;startSize=0;swimlaneHead=0;swimlaneBody=0;fillColor=none;collapsible=0;dropTarget=0;points=[[0,0.5],[1,0.5]];portConstraint=eastwest;top=0;left=0;right=0;bottom=0;" parent="tWp8pD5Znb900uZFBF2w-1" vertex="1">
          <mxGeometry y="95" width="190" height="30" as="geometry" />
        </mxCell>
        <mxCell id="tWp8pD5Znb900uZFBF2w-9" value="" style="shape=partialRectangle;connectable=0;fillColor=none;top=0;left=0;bottom=0;right=0;editable=1;overflow=hidden;whiteSpace=wrap;html=1;fontStyle=1" parent="tWp8pD5Znb900uZFBF2w-8" vertex="1">
          <mxGeometry width="80" height="30" as="geometry">
            <mxRectangle width="80" height="30" as="alternateBounds" />
          </mxGeometry>
        </mxCell>
        <mxCell id="tWp8pD5Znb900uZFBF2w-10" value="Target (Number)" style="shape=partialRectangle;connectable=0;fillColor=none;top=0;left=0;bottom=0;right=0;align=left;spacingLeft=6;overflow=hidden;whiteSpace=wrap;html=1;fontStyle=1" parent="tWp8pD5Znb900uZFBF2w-8" vertex="1">
          <mxGeometry x="80" width="110" height="30" as="geometry">
            <mxRectangle width="110" height="30" as="alternateBounds" />
          </mxGeometry>
        </mxCell>
        <mxCell id="tWp8pD5Znb900uZFBF2w-17" value="CommissionMatrixes" style="shape=table;startSize=30;container=1;collapsible=1;childLayout=tableLayout;fixedRows=1;rowLines=0;fontStyle=1;align=center;resizeLast=1;html=1;fillColor=#dae8fc;strokeColor=#6c8ebf;swimlaneLine=1;horizontal=1;" parent="1" vertex="1">
          <mxGeometry x="420" y="455" width="250" height="190" as="geometry" />
        </mxCell>
        <mxCell id="tWp8pD5Znb900uZFBF2w-18" value="" style="shape=tableRow;horizontal=0;startSize=0;swimlaneHead=0;swimlaneBody=0;fillColor=none;collapsible=0;dropTarget=0;points=[[0,0.5],[1,0.5]];portConstraint=eastwest;top=0;left=0;right=0;bottom=1;strokeColor=inherit;swimlaneLine=0;" parent="tWp8pD5Znb900uZFBF2w-17" vertex="1">
          <mxGeometry y="30" width="250" height="35" as="geometry" />
        </mxCell>
        <mxCell id="tWp8pD5Znb900uZFBF2w-19" value="Partition key" style="shape=partialRectangle;connectable=0;fillColor=none;top=0;left=0;bottom=0;right=0;fontStyle=1;overflow=hidden;whiteSpace=wrap;html=1;strokeColor=inherit;" parent="tWp8pD5Znb900uZFBF2w-18" vertex="1">
          <mxGeometry width="80" height="35" as="geometry">
            <mxRectangle width="80" height="35" as="alternateBounds" />
          </mxGeometry>
        </mxCell>
        <mxCell id="tWp8pD5Znb900uZFBF2w-20" value="Market (String)" style="shape=partialRectangle;connectable=0;fillColor=none;top=0;left=0;bottom=0;right=0;align=left;spacingLeft=6;fontStyle=1;overflow=hidden;whiteSpace=wrap;html=1;strokeColor=inherit;" parent="tWp8pD5Znb900uZFBF2w-18" vertex="1">
          <mxGeometry x="80" width="170" height="35" as="geometry">
            <mxRectangle width="170" height="35" as="alternateBounds" />
          </mxGeometry>
        </mxCell>
        <mxCell id="tWp8pD5Znb900uZFBF2w-21" value="" style="shape=tableRow;horizontal=0;startSize=0;swimlaneHead=0;swimlaneBody=0;fillColor=none;collapsible=0;dropTarget=0;points=[[0,0.5],[1,0.5]];portConstraint=eastwest;top=0;left=0;right=0;bottom=0;strokeColor=inherit;swimlaneLine=1;" parent="tWp8pD5Znb900uZFBF2w-17" vertex="1">
          <mxGeometry y="65" width="250" height="35" as="geometry" />
        </mxCell>
        <mxCell id="tWp8pD5Znb900uZFBF2w-22" value="Sort key" style="shape=partialRectangle;connectable=0;fillColor=none;top=0;left=0;bottom=0;right=0;editable=1;overflow=hidden;whiteSpace=wrap;html=1;fontStyle=1;strokeColor=inherit;" parent="tWp8pD5Znb900uZFBF2w-21" vertex="1">
          <mxGeometry width="80" height="35" as="geometry">
            <mxRectangle width="80" height="35" as="alternateBounds" />
          </mxGeometry>
        </mxCell>
        <mxCell id="tWp8pD5Znb900uZFBF2w-23" value="Year (String)" style="shape=partialRectangle;connectable=0;fillColor=none;top=0;left=0;bottom=0;right=0;align=left;spacingLeft=6;overflow=hidden;whiteSpace=wrap;html=1;fontStyle=1;strokeColor=inherit;" parent="tWp8pD5Znb900uZFBF2w-21" vertex="1">
          <mxGeometry x="80" width="170" height="35" as="geometry">
            <mxRectangle width="170" height="35" as="alternateBounds" />
          </mxGeometry>
        </mxCell>
        <mxCell id="tWp8pD5Znb900uZFBF2w-24" value="" style="shape=tableRow;horizontal=0;startSize=0;swimlaneHead=0;swimlaneBody=0;fillColor=none;collapsible=0;dropTarget=0;points=[[0,0.5],[1,0.5]];portConstraint=eastwest;top=0;left=0;right=0;bottom=0;" parent="tWp8pD5Znb900uZFBF2w-17" vertex="1">
          <mxGeometry y="100" width="250" height="30" as="geometry" />
        </mxCell>
        <mxCell id="tWp8pD5Znb900uZFBF2w-25" value="" style="shape=partialRectangle;connectable=0;fillColor=none;top=0;left=0;bottom=0;right=0;editable=1;overflow=hidden;whiteSpace=wrap;html=1;fontStyle=1" parent="tWp8pD5Znb900uZFBF2w-24" vertex="1">
          <mxGeometry width="80" height="30" as="geometry">
            <mxRectangle width="80" height="30" as="alternateBounds" />
          </mxGeometry>
        </mxCell>
        <mxCell id="tWp8pD5Znb900uZFBF2w-26" value="Matrix (List)" style="shape=partialRectangle;connectable=0;fillColor=none;top=0;left=0;bottom=0;right=0;align=left;spacingLeft=6;overflow=hidden;whiteSpace=wrap;html=1;fontStyle=1;strokeColor=default;" parent="tWp8pD5Znb900uZFBF2w-24" vertex="1">
          <mxGeometry x="80" width="170" height="30" as="geometry">
            <mxRectangle width="170" height="30" as="alternateBounds" />
          </mxGeometry>
        </mxCell>
        <mxCell id="wcNme6mrH9t7D6dp_DVs-4" value="" style="shape=tableRow;horizontal=0;startSize=0;swimlaneHead=0;swimlaneBody=0;fillColor=none;collapsible=0;dropTarget=0;points=[[0,0.5],[1,0.5]];portConstraint=eastwest;top=0;left=0;right=0;bottom=0;" parent="tWp8pD5Znb900uZFBF2w-17" vertex="1">
          <mxGeometry y="130" width="250" height="30" as="geometry" />
        </mxCell>
        <mxCell id="wcNme6mrH9t7D6dp_DVs-5" value="" style="shape=partialRectangle;connectable=0;fillColor=none;top=0;left=0;bottom=0;right=0;editable=1;overflow=hidden;whiteSpace=wrap;html=1;fontStyle=1" parent="wcNme6mrH9t7D6dp_DVs-4" vertex="1">
          <mxGeometry width="80" height="30" as="geometry">
            <mxRectangle width="80" height="30" as="alternateBounds" />
          </mxGeometry>
        </mxCell>
        <mxCell id="wcNme6mrH9t7D6dp_DVs-6" value="&lt;span style=&quot;color: rgb(0, 0, 0); font-family: Helvetica; font-size: 12px; font-style: normal; font-variant-ligatures: normal; font-variant-caps: normal; font-weight: 700; letter-spacing: normal; orphans: 2; text-align: left; text-indent: 0px; text-transform: none; widows: 2; word-spacing: 0px; -webkit-text-stroke-width: 0px; background-color: rgb(251, 251, 251); text-decoration-thickness: initial; text-decoration-style: initial; text-decoration-color: initial; float: none; display: inline !important;&quot;&gt;PenetrationRanges (List)&lt;/span&gt;" style="shape=partialRectangle;connectable=0;fillColor=none;top=0;left=0;bottom=0;right=0;align=left;spacingLeft=6;overflow=hidden;whiteSpace=wrap;html=1;fontStyle=1" parent="wcNme6mrH9t7D6dp_DVs-4" vertex="1">
          <mxGeometry x="80" width="170" height="30" as="geometry">
            <mxRectangle width="170" height="30" as="alternateBounds" />
          </mxGeometry>
        </mxCell>
        <mxCell id="wcNme6mrH9t7D6dp_DVs-1" value="" style="shape=tableRow;horizontal=0;startSize=0;swimlaneHead=0;swimlaneBody=0;fillColor=none;collapsible=0;dropTarget=0;points=[[0,0.5],[1,0.5]];portConstraint=eastwest;top=0;left=0;right=0;bottom=0;" parent="tWp8pD5Znb900uZFBF2w-17" vertex="1">
          <mxGeometry y="160" width="250" height="30" as="geometry" />
        </mxCell>
        <mxCell id="wcNme6mrH9t7D6dp_DVs-2" value="" style="shape=partialRectangle;connectable=0;fillColor=none;top=0;left=0;bottom=0;right=0;editable=1;overflow=hidden;whiteSpace=wrap;html=1;fontStyle=1" parent="wcNme6mrH9t7D6dp_DVs-1" vertex="1">
          <mxGeometry width="80" height="30" as="geometry">
            <mxRectangle width="80" height="30" as="alternateBounds" />
          </mxGeometry>
        </mxCell>
        <mxCell id="wcNme6mrH9t7D6dp_DVs-3" value="VolumeTargetRanges (List)" style="shape=partialRectangle;connectable=0;fillColor=none;top=0;left=0;bottom=0;right=0;align=left;spacingLeft=6;overflow=hidden;whiteSpace=wrap;html=1;fontStyle=1" parent="wcNme6mrH9t7D6dp_DVs-1" vertex="1">
          <mxGeometry x="80" width="170" height="30" as="geometry">
            <mxRectangle width="170" height="30" as="alternateBounds" />
          </mxGeometry>
        </mxCell>
        <UserObject label="&lt;font style=&quot;font-size: 18px;&quot;&gt;DynamoDB&lt;/font&gt;" placeholders="1" name="Variable" id="tWp8pD5Znb900uZFBF2w-30">
          <mxCell style="text;html=1;strokeColor=none;fillColor=none;align=center;verticalAlign=middle;whiteSpace=wrap;overflow=hidden;" parent="1" vertex="1">
            <mxGeometry x="375" y="390" width="100" height="50" as="geometry" />
          </mxCell>
        </UserObject>
      </root>
    </mxGraphModel>
  </diagram>
</mxfile>
